<mxfile host="app.diagrams.net" modified="2021-11-05T07:54:50.364Z" agent="5.0 (Windows NT 10.0; Win64; x64) AppleWebKit/537.36 (KHTML, like Gecko) Chrome/95.0.4638.54 Safari/537.36" etag="YFKefLwo7mh0P7Ypp1iz" version="15.6.8" type="github">
  <diagram id="qpCgczyUxhtcVtG9j94T" name="第 1 页">
    <mxGraphModel dx="1422" dy="761" grid="1" gridSize="10" guides="1" tooltips="1" connect="1" arrows="1" fold="1" page="1" pageScale="1" pageWidth="827" pageHeight="1169" math="0" shadow="0">
      <root>
        <mxCell id="0" />
        <mxCell id="1" parent="0" />
        <mxCell id="KroNpoQIzIgqycC2E6Yz-1" value="C端" style="swimlane;" vertex="1" parent="1">
          <mxGeometry x="180" y="100" width="500" height="680" as="geometry" />
        </mxCell>
        <mxCell id="KroNpoQIzIgqycC2E6Yz-3" value="B端" style="swimlane;" vertex="1" parent="1">
          <mxGeometry x="680" y="100" width="500" height="680" as="geometry" />
        </mxCell>
        <mxCell id="KroNpoQIzIgqycC2E6Yz-6" value="志愿者团队管理员/负责人" style="rounded=0;whiteSpace=wrap;html=1;" vertex="1" parent="KroNpoQIzIgqycC2E6Yz-3">
          <mxGeometry x="290" y="70" width="150" height="40" as="geometry" />
        </mxCell>
        <mxCell id="KroNpoQIzIgqycC2E6Yz-7" value="创建文明实践活动" style="rounded=0;whiteSpace=wrap;html=1;" vertex="1" parent="KroNpoQIzIgqycC2E6Yz-3">
          <mxGeometry x="305" y="140" width="120" height="40" as="geometry" />
        </mxCell>
        <mxCell id="KroNpoQIzIgqycC2E6Yz-8" value="" style="endArrow=classic;html=1;rounded=0;exitX=0.5;exitY=1;exitDx=0;exitDy=0;entryX=0.5;entryY=0;entryDx=0;entryDy=0;" edge="1" parent="KroNpoQIzIgqycC2E6Yz-3" source="KroNpoQIzIgqycC2E6Yz-6" target="KroNpoQIzIgqycC2E6Yz-7">
          <mxGeometry width="50" height="50" relative="1" as="geometry">
            <mxPoint x="210" y="410" as="sourcePoint" />
            <mxPoint x="260" y="360" as="targetPoint" />
          </mxGeometry>
        </mxCell>
        <mxCell id="KroNpoQIzIgqycC2E6Yz-9" value="基本信息" style="rounded=1;whiteSpace=wrap;html=1;" vertex="1" parent="KroNpoQIzIgqycC2E6Yz-3">
          <mxGeometry x="330" y="210" width="70" height="30" as="geometry" />
        </mxCell>
        <mxCell id="KroNpoQIzIgqycC2E6Yz-10" value="招募设置" style="rounded=1;whiteSpace=wrap;html=1;" vertex="1" parent="KroNpoQIzIgqycC2E6Yz-3">
          <mxGeometry x="330" y="270" width="70" height="30" as="geometry" />
        </mxCell>
        <mxCell id="KroNpoQIzIgqycC2E6Yz-11" value="公示设置" style="rounded=1;whiteSpace=wrap;html=1;" vertex="1" parent="KroNpoQIzIgqycC2E6Yz-3">
          <mxGeometry x="330" y="325" width="70" height="30" as="geometry" />
        </mxCell>
        <mxCell id="KroNpoQIzIgqycC2E6Yz-12" value="签到设置" style="rounded=1;whiteSpace=wrap;html=1;" vertex="1" parent="KroNpoQIzIgqycC2E6Yz-3">
          <mxGeometry x="330" y="380" width="70" height="30" as="geometry" />
        </mxCell>
        <mxCell id="KroNpoQIzIgqycC2E6Yz-13" value="" style="endArrow=classic;html=1;rounded=0;exitX=0.5;exitY=1;exitDx=0;exitDy=0;entryX=0.5;entryY=0;entryDx=0;entryDy=0;" edge="1" parent="KroNpoQIzIgqycC2E6Yz-3" source="KroNpoQIzIgqycC2E6Yz-7" target="KroNpoQIzIgqycC2E6Yz-9">
          <mxGeometry width="50" height="50" relative="1" as="geometry">
            <mxPoint x="210" y="410" as="sourcePoint" />
            <mxPoint x="260" y="360" as="targetPoint" />
          </mxGeometry>
        </mxCell>
        <mxCell id="KroNpoQIzIgqycC2E6Yz-14" value="" style="endArrow=classic;html=1;rounded=0;exitX=0.5;exitY=1;exitDx=0;exitDy=0;" edge="1" parent="KroNpoQIzIgqycC2E6Yz-3" source="KroNpoQIzIgqycC2E6Yz-9" target="KroNpoQIzIgqycC2E6Yz-10">
          <mxGeometry width="50" height="50" relative="1" as="geometry">
            <mxPoint x="210" y="410" as="sourcePoint" />
            <mxPoint x="260" y="360" as="targetPoint" />
          </mxGeometry>
        </mxCell>
        <mxCell id="KroNpoQIzIgqycC2E6Yz-15" value="" style="endArrow=classic;html=1;rounded=0;exitX=0.5;exitY=1;exitDx=0;exitDy=0;entryX=0.5;entryY=0;entryDx=0;entryDy=0;" edge="1" parent="KroNpoQIzIgqycC2E6Yz-3" source="KroNpoQIzIgqycC2E6Yz-10" target="KroNpoQIzIgqycC2E6Yz-11">
          <mxGeometry width="50" height="50" relative="1" as="geometry">
            <mxPoint x="210" y="410" as="sourcePoint" />
            <mxPoint x="260" y="360" as="targetPoint" />
          </mxGeometry>
        </mxCell>
        <mxCell id="KroNpoQIzIgqycC2E6Yz-16" value="" style="endArrow=classic;html=1;rounded=0;exitX=0.5;exitY=1;exitDx=0;exitDy=0;entryX=0.5;entryY=0;entryDx=0;entryDy=0;" edge="1" parent="KroNpoQIzIgqycC2E6Yz-3" source="KroNpoQIzIgqycC2E6Yz-11" target="KroNpoQIzIgqycC2E6Yz-12">
          <mxGeometry width="50" height="50" relative="1" as="geometry">
            <mxPoint x="210" y="410" as="sourcePoint" />
            <mxPoint x="260" y="360" as="targetPoint" />
          </mxGeometry>
        </mxCell>
        <mxCell id="KroNpoQIzIgqycC2E6Yz-4" value="P端" style="swimlane;" vertex="1" parent="1">
          <mxGeometry x="1180" y="100" width="500" height="680" as="geometry" />
        </mxCell>
        <mxCell id="KroNpoQIzIgqycC2E6Yz-5" value="创建志愿者团队" style="rounded=0;whiteSpace=wrap;html=1;" vertex="1" parent="KroNpoQIzIgqycC2E6Yz-4">
          <mxGeometry x="70" y="70" width="120" height="40" as="geometry" />
        </mxCell>
        <mxCell id="KroNpoQIzIgqycC2E6Yz-19" value="" style="rounded=0;whiteSpace=wrap;html=1;" vertex="1" parent="KroNpoQIzIgqycC2E6Yz-4">
          <mxGeometry x="290" y="70" width="120" height="40" as="geometry" />
        </mxCell>
        <mxCell id="KroNpoQIzIgqycC2E6Yz-18" value="" style="endArrow=none;dashed=1;html=1;dashPattern=1 3;strokeWidth=2;rounded=0;exitX=1;exitY=0.5;exitDx=0;exitDy=0;entryX=0.5;entryY=1;entryDx=0;entryDy=0;" edge="1" parent="1" source="KroNpoQIzIgqycC2E6Yz-7" target="KroNpoQIzIgqycC2E6Yz-5">
          <mxGeometry width="50" height="50" relative="1" as="geometry">
            <mxPoint x="1200" y="410" as="sourcePoint" />
            <mxPoint x="1250" y="360" as="targetPoint" />
            <Array as="points">
              <mxPoint x="1310" y="260" />
            </Array>
          </mxGeometry>
        </mxCell>
      </root>
    </mxGraphModel>
  </diagram>
</mxfile>
